<svg width="46" height="38" viewBox="0 0 46 38" fill="none" xmlns="http://www.w3.org/2000/svg">
<g id="Assignment ind" clip-path="url(#clip0_575_429)">
<rect width="45" height="37.9795" transform="translate(0.465332)" fill="#FD620B" fill-opacity="0.95"/>
<path id="Vector" d="M36.0903 4.74748H28.2528C27.4653 2.9118 25.4028 1.58252 22.9653 1.58252C20.5278 1.58252 18.4653 2.9118 17.6778 4.74748H9.84033C7.77783 4.74748 6.09033 6.17171 6.09033 7.91244V30.0671C6.09033 31.8079 7.77783 33.2321 9.84033 33.2321H36.0903C38.1528 33.2321 39.8403 31.8079 39.8403 30.0671V7.91244C39.8403 6.17171 38.1528 4.74748 36.0903 4.74748ZM22.9653 4.74748C23.9966 4.74748 24.8403 5.45959 24.8403 6.32996C24.8403 7.20032 23.9966 7.91244 22.9653 7.91244C21.9341 7.91244 21.0903 7.20032 21.0903 6.32996C21.0903 5.45959 21.9341 4.74748 22.9653 4.74748ZM22.9653 11.0774C26.0778 11.0774 28.5903 13.1979 28.5903 15.8248C28.5903 18.4517 26.0778 20.5723 22.9653 20.5723C19.8528 20.5723 17.3403 18.4517 17.3403 15.8248C17.3403 13.1979 19.8528 11.0774 22.9653 11.0774ZM34.2153 30.0671H11.7153V27.8517C11.7153 24.6867 19.2153 22.946 22.9653 22.946C26.7153 22.946 34.2153 24.6867 34.2153 27.8517V30.0671Z" fill="#FFFBFB"/>
</g>
<defs>
<clipPath id="clip0_575_429">
<rect width="45" height="37.9795" fill="white" transform="translate(0.465332)"/>
</clipPath>
</defs>
</svg>
