<svg width="27" height="25" viewBox="0 0 27 25" fill="none" xmlns="http://www.w3.org/2000/svg">
<g id="Assignment ind" clip-path="url(#clip0_1065_529)">
<rect width="25.263" height="23.9999" transform="matrix(-0.999996 0 0 1 26.0078 0.147949)" fill="#FD620B" fill-opacity="0.95"/>
<path id="Vector" d="M6.00817 3.14795L10.4081 3.14795C10.8502 1.98795 12.0081 1.14795 13.3765 1.14795C14.7449 1.14795 15.9028 1.98795 16.3449 3.14795L20.7449 3.14795C21.9027 3.14795 22.8501 4.04795 22.8501 5.14795L22.8501 19.1479C22.8501 20.2479 21.9027 21.1479 20.7449 21.1479L6.00817 21.1479C4.85029 21.1479 3.90293 20.2479 3.90293 19.1479L3.90293 5.14795C3.90293 4.04795 4.85029 3.14795 6.00817 3.14795ZM13.3765 3.14795C12.7976 3.14795 12.3239 3.59795 12.3239 4.14795C12.3239 4.69795 12.7976 5.14795 13.3765 5.14795C13.9555 5.14795 14.4291 4.69795 14.4291 4.14795C14.4291 3.59795 13.9555 3.14795 13.3765 3.14795ZM13.3765 7.14795C11.6292 7.14795 10.2187 8.48795 10.2187 10.1479C10.2187 11.8079 11.6292 13.1479 13.3765 13.1479C15.1239 13.1479 16.5344 11.8079 16.5344 10.1479C16.5344 8.48795 15.1239 7.14795 13.3765 7.14795ZM7.06079 19.1479L19.6922 19.1479L19.6922 17.7479C19.6922 15.7479 15.4818 14.6479 13.3765 14.6479C11.2713 14.6479 7.06079 15.7479 7.06079 17.7479L7.06079 19.1479Z" fill="#FFFBFB"/>
</g>
<defs>
<clipPath id="clip0_1065_529">
<rect width="25.263" height="23.9999" fill="white" transform="matrix(-0.999996 0 0 1 26.0078 0.147949)"/>
</clipPath>
</defs>
</svg>
