<svg width="36" height="36" viewBox="0 0 36 36" fill="none" xmlns="http://www.w3.org/2000/svg">
<g id="ep:edit">
<path id="Vector" d="M29.25 18C29.25 17.7016 29.3685 17.4155 29.5795 17.2045C29.7905 16.9935 30.0766 16.875 30.375 16.875C30.6734 16.875 30.9595 16.9935 31.1705 17.2045C31.3815 17.4155 31.5 17.7016 31.5 18V30.375C31.5 30.6734 31.3815 30.9595 31.1705 31.1705C30.9595 31.3815 30.6734 31.5 30.375 31.5H5.625C5.32663 31.5 5.04048 31.3815 4.82951 31.1705C4.61853 30.9595 4.5 30.6734 4.5 30.375V5.625C4.5 5.32663 4.61853 5.04048 4.82951 4.82951C5.04048 4.61853 5.32663 4.5 5.625 4.5H18C18.2984 4.5 18.5845 4.61853 18.7955 4.82951C19.0065 5.04048 19.125 5.32663 19.125 5.625C19.125 5.92337 19.0065 6.20952 18.7955 6.42049C18.5845 6.63147 18.2984 6.75 18 6.75H6.75V29.25H29.25V18Z" fill="black"/>
<path id="Vector_2" d="M16.5217 19.4848L18.378 19.2193L29.781 7.81858C29.8884 7.7148 29.9741 7.59066 30.0331 7.45341C30.092 7.31616 30.1231 7.16853 30.1244 7.01916C30.1257 6.86978 30.0972 6.72164 30.0406 6.58338C29.9841 6.44512 29.9005 6.31951 29.7949 6.21389C29.6893 6.10826 29.5637 6.02472 29.4254 5.96816C29.2872 5.91159 29.139 5.88313 28.9896 5.88442C28.8403 5.88572 28.6926 5.91676 28.5554 5.97572C28.4181 6.03468 28.294 6.12038 28.1902 6.22783L16.785 17.6286L16.5195 19.4848H16.5217ZM31.3717 4.63483C31.6853 4.94826 31.9341 5.32041 32.1039 5.73002C32.2736 6.13964 32.361 6.57869 32.361 7.02208C32.361 7.46547 32.2736 7.90452 32.1039 8.31414C31.9341 8.72375 31.6853 9.0959 31.3717 9.40933L19.7055 21.0756C19.5334 21.2482 19.31 21.3604 19.0687 21.3951L15.3562 21.9261C15.1832 21.9509 15.0068 21.9351 14.8409 21.8799C14.6751 21.8247 14.5244 21.7316 14.4008 21.608C14.2772 21.4844 14.1841 21.3337 14.1289 21.1679C14.0737 21.002 14.0579 20.8256 14.0827 20.6526L14.6137 16.9401C14.6478 16.6991 14.7591 16.4757 14.931 16.3033L26.5995 4.63708C27.2324 4.00437 28.0907 3.64893 28.9856 3.64893C29.8805 3.64893 30.7388 4.00437 31.3717 4.63708V4.63483Z" fill="black"/>
</g>
</svg>
