<svg width="26" height="32" viewBox="0 0 26 32" fill="none" xmlns="http://www.w3.org/2000/svg">
<g id="Featured play list" clip-path="url(#clip0_1089_269)">
<path id="Vector" d="M3.69125 4.02295L22.6384 4.02295C23.7963 4.02295 24.7437 5.18545 24.7437 6.60628L24.7437 24.6896C24.7437 26.1105 23.7963 27.273 22.6384 27.273L3.69125 27.273C2.53336 27.273 1.586 26.1105 1.586 24.6896L1.586 6.60628C1.586 5.18545 2.53336 4.02295 3.69125 4.02295ZM13.1648 14.3563L22.6384 14.3563L22.6384 11.7729L13.1648 11.7729L13.1648 14.3563ZM13.1648 9.18962L22.6384 9.18962L22.6384 6.60628L13.1648 6.60628L13.1648 9.18962Z" fill="#F9D0B8" fill-opacity="0.95"/>
</g>
<defs>
<clipPath id="clip0_1089_269">
<rect width="25.263" height="30.9999" fill="white" transform="matrix(-0.999996 0 0 1 25.7964 0.147949)"/>
</clipPath>
</defs>
</svg>
