<svg width="55" height="56" viewBox="0 0 55 56" fill="none" xmlns="http://www.w3.org/2000/svg">
<g id="Person outline" clip-path="url(#clip0_575_442)">
<rect width="54.0145" height="54.5139" transform="translate(0.912598 0.565918)" fill="white"/>
<path id="Vector" d="M27.9199 13.9671C30.5306 13.9671 32.6461 16.1022 32.6461 18.737C32.6461 21.3719 30.5306 23.507 27.9199 23.507C25.3092 23.507 23.1936 21.3719 23.1936 18.737C23.1936 16.1022 25.3092 13.9671 27.9199 13.9671ZM27.9199 34.4098C34.6041 34.4098 41.6485 37.726 41.6485 39.1797V41.6783H14.1912V39.1797C14.1912 37.726 21.2356 34.4098 27.9199 34.4098ZM27.9199 9.65137C22.946 9.65137 18.9174 13.7172 18.9174 18.737C18.9174 23.7568 22.946 27.8227 27.9199 27.8227C32.8937 27.8227 36.9223 23.7568 36.9223 18.737C36.9223 13.7172 32.8937 9.65137 27.9199 9.65137ZM27.9199 30.0941C21.9107 30.0941 9.91504 33.1378 9.91504 39.1797V45.994H45.9247V39.1797C45.9247 33.1378 33.929 30.0941 27.9199 30.0941Z" fill="#FD620B" fill-opacity="0.95"/>
</g>
<defs>
<clipPath id="clip0_575_442">
<rect width="54.0145" height="54.5139" fill="white" transform="translate(0.912598 0.565918)"/>
</clipPath>
</defs>
</svg>
