<svg width="46" height="33" viewBox="0 0 46 33" fill="none" xmlns="http://www.w3.org/2000/svg">
<path id="Vector" d="M31.1472 13.9925C34.5426 13.9925 37.2631 10.8675 37.2631 6.99623C37.2631 3.12498 34.5426 0 31.1472 0C27.7517 0 25.0108 3.12498 25.0108 6.99623C25.0108 10.8675 27.7517 13.9925 31.1472 13.9925ZM14.7835 13.9925C18.179 13.9925 20.8994 10.8675 20.8994 6.99623C20.8994 3.12498 18.179 0 14.7835 0C11.3881 0 8.64715 3.12498 8.64715 6.99623C8.64715 10.8675 11.3881 13.9925 14.7835 13.9925ZM14.7835 18.6566C10.0176 18.6566 0.465332 21.3851 0.465332 26.8189V32.6491H29.1017V26.8189C29.1017 21.3851 19.5494 18.6566 14.7835 18.6566ZM31.1472 18.6566C30.554 18.6566 29.879 18.7032 29.1631 18.7732C31.5358 20.7321 33.1926 23.3674 33.1926 26.8189V32.6491H45.4653V26.8189C45.4653 21.3851 35.9131 18.6566 31.1472 18.6566Z" fill="#FD620B" fill-opacity="0.95"/>
</svg>
