<svg width="26" height="22" viewBox="0 0 26 22" fill="none" xmlns="http://www.w3.org/2000/svg">
<path id="Vector" d="M8.37707 9.14795C6.53661 9.14795 5.06201 7.13795 5.06201 4.64795C5.06201 2.15795 6.53661 0.147949 8.37707 0.147949C10.2175 0.147949 11.7032 2.15795 11.7032 4.64795C11.7032 7.13795 10.2175 9.14795 8.37707 9.14795ZM17.2468 9.14795C15.4063 9.14795 13.9317 7.13795 13.9317 4.64795C13.9317 2.15795 15.4063 0.147949 17.2468 0.147949C19.0873 0.147949 20.5729 2.15795 20.5729 4.64795C20.5729 7.13795 19.0873 9.14795 17.2468 9.14795ZM17.2468 12.1479C19.8301 12.1479 25.0078 13.9029 25.0078 17.398L25.0078 21.1479L9.48579 21.1479L9.48579 17.398C9.48579 13.9029 14.6635 12.1479 17.2468 12.1479ZM8.37707 12.1479C8.6986 12.1479 9.06448 12.1779 9.45253 12.2229C8.16642 13.4829 7.26836 15.178 7.26836 17.398L7.26836 21.1479L0.616061 21.1479L0.616061 17.398C0.616061 13.9029 5.79376 12.1479 8.37707 12.1479Z" fill="white"/>
</svg>
