<svg width="35" height="36" viewBox="0 0 35 36" fill="none" xmlns="http://www.w3.org/2000/svg">
<path id="Vector" d="M25.0143 22.1913H23.4334L22.8731 21.651C24.8342 19.3697 26.0149 16.408 26.0149 13.1861C26.0149 6.00204 20.1915 0.178711 13.0074 0.178711C5.82333 0.178711 0 6.00204 0 13.1861C0 20.3702 5.82333 26.1936 13.0074 26.1936C16.2293 26.1936 19.191 25.0129 21.4723 23.0518L22.0126 23.6121V25.193L32.0183 35.1787L35 32.197L25.0143 22.1913ZM13.0074 22.1913C8.02458 22.1913 4.00229 18.169 4.00229 13.1861C4.00229 8.2033 8.02458 4.181 13.0074 4.181C17.9903 4.181 22.0126 8.2033 22.0126 13.1861C22.0126 18.169 17.9903 22.1913 13.0074 22.1913Z" fill="#FD620B" fill-opacity="0.95"/>
</svg>
