<svg width="57" height="81" viewBox="0 0 57 81" fill="none" xmlns="http://www.w3.org/2000/svg">
<path id="Vector" d="M27.9998 0.0951578C12.5199 0.147762 0.0425456 12.7102 0.0951498 28.1901C0.118801 35.1501 2.14095 41.6633 5.80091 47.5309C9.62182 53.6779 14.6397 58.9409 18.5006 65.0878C20.3908 68.0814 21.7603 70.8768 23.2113 74.1119C24.2588 76.3083 25.1117 80.1054 28.2717 80.0947C31.4317 80.084 32.2588 76.2811 33.2513 74.0777C34.7203 70.8327 36.0307 68.0283 37.9005 65.0219C41.7197 58.8889 46.7017 53.5919 50.4806 47.379C54.1406 41.4866 56.1185 34.9598 56.0948 27.9998C56.0422 12.5199 43.4797 0.0425535 27.9998 0.0951578ZM28.1324 39.0949C22.6124 39.1137 18.1172 34.6489 18.0984 29.129C18.0797 23.609 22.5444 19.1138 28.0644 19.095C33.5844 19.0763 38.0796 23.541 38.0983 29.061C38.1171 34.581 33.6523 39.0762 28.1324 39.0949Z" fill="#FD620B" fill-opacity="0.95"/>
</svg>
